<?xml version="1.0" encoding="UTF-8" standalone="no"?>
<!-- Created with Inkscape (http://www.inkscape.org/) -->

<svg
   width="110.00001mm"
   height="128.466mm"
   viewBox="0 0 110.00001 128.466"
   version="1.1"
   id="svg1"
   xmlns="http://www.w3.org/2000/svg"
   xmlns:svg="http://www.w3.org/2000/svg">
  <defs
     id="defs1" />
  <g
     id="layer1"
     transform="translate(9.7830278,-1.1387237)">
    <path
       style="fill:#4d4d4d;fill-opacity:1;stroke-width:0.165583"
       d="m 42.681742,129.39045 c -3.73203,-0.68134 -7.21554,-2.67418 -11.83796,-6.77223 -3.36981,-2.98754 -5.09396,-5.07375 -10.83156,-13.10613 C 12.825199,99.450582 10.126026,95.166535 6.8681205,88.650149 4.9662425,84.846059 3.8285125,82.223279 3.3734565,80.593989 2.5478455,77.637969 1.5232795,71.949617 0.93243752,67.041557 0.57737753,64.092107 0.52813253,57.468987 0.83886752,54.457237 1.6838855,46.267102 3.1922635,37.696788 4.6274135,32.931441 6.3925255,27.070474 9.5007853,20.56932 12.466673,16.535048 c 1.42073,-1.932509 4.695453,-5.140331 6.785059,-6.6464454 11.51612,-8.3003934 25.06982,-10.82634379 37.64272,-7.0153264 6.68644,2.026748 13.663212,6.028039 17.902582,10.2673998 4.23234,4.23235 8.10313,11.221553 10.59377,19.128433 1.66498,5.285714 3.49223,15.836284 4.08064,23.561668 0.51454,6.75553 -0.41974,15.96875 -2.43705,24.032362 -1.00596,4.021 -5.1906,12.335746 -9.92241,19.715493 -2.50515,3.907028 -11.427012,16.388248 -13.080652,18.299128 -2.75071,3.17863 -6.49005,6.55365 -9.42761,8.50909 -4.02827,2.6815 -8.08629,3.70387 -11.92198,3.0036 z m -1.81077,-26.95188 c 0.13322,-0.13375 -0.74955,-3.346325 -1.77168,-6.447495 -2.53999,-7.706426 -6.15271,-14.261566 -10.22034,-18.544416 -1.79385,-1.888762 -3.43354,-3.170312 -6.03562,-4.717292 -4.31921,-2.56786 -7.804066,-3.73683 -13.2652717,-4.44977 -1.176805,-0.15362 -2.4342558,-0.38326 -2.7943338,-0.5103 -0.360079,-0.12705 -0.682577,-0.23099 -0.716662,-0.23099 -0.03409,0 -0.06197,0.81174 -0.06197,1.80387 0,9.510242 3.4699788,17.988132 9.7996775,23.942648 5.48613,5.16096 12.34765,8.431905 19.26015,9.181485 1.54589,0.16764 5.63089,0.14812 5.80605,-0.0277 z m 14.00498,0.0299 c 7.60221,-0.76904 14.475822,-4.156435 20.267092,-9.987895 5.0827,-5.117966 8.01914,-11.432796 8.84265,-19.016128 0.18353,-1.69 0.24138,-5.92612 0.0809,-5.92612 -0.0515,0 -0.23933,0.078 -0.41735,0.17322 -0.17801,0.0953 -1.60748,0.35859 -3.17659,0.58517 -6.2478,0.90215 -9.88507,2.26375 -14.885642,5.57239 -6.73713,4.457632 -11.97078,13.153902 -15.68916,26.069204 -0.37159,1.290669 -0.67562,2.384259 -0.67562,2.430209 0,0.29188 3.19753,0.34841 5.65368,0.1 z"
       id="path13" />
    <text
       xml:space="preserve"
       style="font-style:normal;font-variant:normal;font-weight:bold;font-stretch:normal;font-size:16.9333px;font-family:'DejaVu Sans';-inkscape-font-specification:'DejaVu Sans, Bold';font-variant-ligatures:normal;font-variant-caps:normal;font-variant-numeric:normal;font-variant-east-asian:normal;text-align:start;writing-mode:lr-tb;direction:ltr;text-anchor:start;fill:#00ff00;stroke-width:0.264583"
       x="12.613895"
       y="38.988411"
       id="text1"><tspan
         style="font-style:normal;font-variant:normal;font-weight:bold;font-stretch:normal;font-size:16.9333px;font-family:'DejaVu Sans';-inkscape-font-specification:'DejaVu Sans, Bold';font-variant-ligatures:normal;font-variant-caps:normal;font-variant-numeric:normal;font-variant-east-asian:normal;fill:#00ff00;stroke-width:0.264583"
         x="12.613895"
         y="38.988411"
         id="tspan3">FX </tspan><tspan
         style="font-style:normal;font-variant:normal;font-weight:bold;font-stretch:normal;font-size:16.9333px;font-family:'DejaVu Sans';-inkscape-font-specification:'DejaVu Sans, Bold';font-variant-ligatures:normal;font-variant-caps:normal;font-variant-numeric:normal;font-variant-east-asian:normal;fill:#00ff00;stroke-width:0.264583"
         x="12.613895"
         y="60.155037"
         id="tspan4">Aurora</tspan></text>
    <path
       style="fill:#00ff00;stroke-width:0.722342"
       d="m 128.5769,382.39207 c -17.28724,-1.98803 -36.928293,-9.605 -53.52232,-20.75645 -33.842948,-22.74298 -52.476817,-56.47589 -53.89038,-97.55781 -0.379733,-11.03606 -0.299051,-12.5279 0.657682,-12.16077 0.599782,0.23016 4.467891,0.95582 8.595797,1.61259 21.951048,3.4925 31.043537,6.05254 43.62239,12.2821 15.829562,7.83945 26.877271,16.18018 36.297351,27.40354 15.34005,18.27659 28.33452,44.01797 37.22184,73.73454 4.55868,15.24291 4.5595,15.24798 2.54409,15.7878 -2.28924,0.61316 -14.95818,0.4098 -21.52645,-0.34554 z"
       id="path4"
       transform="matrix(0.26458333,0,0,0.26458333,0.63311574,1.1387237)" />
    <path
       style="fill:#00ff00;stroke-width:0.722342"
       d="m 185.09301,382.60263 c -0.7023,-0.44584 -0.25989,-2.79353 1.93764,-10.28232 13.01353,-44.34785 30.26467,-74.66137 52.6609,-92.53523 5.73668,-4.5783 18.82,-12.60336 25.32289,-15.53258 10.05314,-4.52842 21.76932,-7.69198 38.18604,-10.31085 5.26263,-0.83952 10.02273,-1.70073 10.578,-1.91381 1.40501,-0.53916 1.73191,4.28233 1.08217,15.96109 -2.16226,38.86621 -21.34096,71.91884 -54.76299,94.37874 -15.89376,10.68075 -33.27886,17.29594 -52.00791,19.78948 -8.33575,1.10981 -21.54714,1.36573 -22.99674,0.44548 z"
       id="path5"
       transform="matrix(0.26458333,0,0,0.26458333,0.63311574,1.1387237)" />
  </g>
</svg>
